<svg xmlns="http://www.w3.org/2000/svg" xmlns:xlink="http://www.w3.org/1999/xlink" width="500" zoomAndPan="magnify" viewBox="0 0 375 374.999991" height="500" preserveAspectRatio="xMidYMid meet" version="1.0"><defs><g/><clipPath id="376da60c18"><path d="M 6 143.359375 L 81.933594 143.359375 L 81.933594 194 L 6 194 Z M 6 143.359375 " clip-rule="nonzero"/></clipPath><clipPath id="3a5894d590"><path d="M 4.683594 183 L 81 183 L 81 214 L 4.683594 214 Z M 4.683594 183 " clip-rule="nonzero"/></clipPath><clipPath id="cfcfccc770"><path d="M 44 214 L 58 214 L 58 231.859375 L 44 231.859375 Z M 44 214 " clip-rule="nonzero"/></clipPath><clipPath id="129ee189af"><path d="M 29 214 L 43 214 L 43 231.859375 L 29 231.859375 Z M 29 214 " clip-rule="nonzero"/></clipPath></defs><rect x="-37.5" width="450" fill="#ffffff" y="-37.499999" height="449.999989" fill-opacity="1"/><rect x="-37.5" width="450" fill="#031744" y="-37.499999" height="449.999989" fill-opacity="1"/><path fill="#60fdfc" d="M 61.957031 188.574219 C 61.957031 191.363281 59.695312 193.628906 56.902344 193.628906 C 54.109375 193.628906 51.847656 191.367188 51.847656 188.574219 C 51.847656 185.777344 54.109375 183.515625 56.902344 183.515625 C 59.695312 183.515625 61.957031 185.777344 61.957031 188.574219 Z M 61.957031 188.574219 " fill-opacity="1" fill-rule="nonzero"/><path fill="#60fdfc" d="M 29.722656 183.515625 C 32.511719 183.515625 34.777344 185.777344 34.777344 188.574219 C 34.777344 191.363281 32.519531 193.628906 29.722656 193.628906 C 26.929688 193.628906 24.667969 191.363281 24.667969 188.574219 C 24.667969 185.777344 26.929688 183.515625 29.722656 183.515625 Z M 29.722656 183.515625 " fill-opacity="1" fill-rule="nonzero"/><g clip-path="url(#376da60c18)"><path fill="#60fdfc" d="M 73.902344 193.957031 L 81.910156 193.957031 C 81.914062 193.78125 81.933594 193.609375 81.933594 193.433594 L 81.933594 183.707031 C 81.933594 172.503906 72.820312 163.386719 61.617188 163.386719 L 45.121094 163.386719 L 45.121094 154.683594 C 47.4375 153.914062 49.125 151.757812 49.125 149.183594 C 49.125 145.96875 46.519531 143.363281 43.308594 143.363281 C 40.097656 143.363281 37.488281 145.96875 37.488281 149.183594 C 37.488281 151.757812 39.175781 153.917969 41.496094 154.683594 L 41.496094 163.394531 L 25.003906 163.394531 C 16.535156 163.394531 9.269531 168.605469 6.222656 175.980469 L 15.4375 175.980469 C 17.695312 173.191406 21.140625 171.398438 25.003906 171.398438 L 61.625 171.398438 C 68.410156 171.398438 73.929688 176.921875 73.929688 183.707031 L 73.929688 193.433594 C 73.929688 193.613281 73.90625 193.785156 73.902344 193.957031 Z M 42.8125 146.675781 C 42.8125 147.585938 42.074219 148.320312 41.167969 148.320312 C 40.257812 148.320312 39.519531 147.585938 39.519531 146.675781 C 39.519531 145.765625 40.257812 145.03125 41.167969 145.03125 C 42.074219 145.03125 42.8125 145.773438 42.8125 146.675781 Z M 42.8125 146.675781 " fill-opacity="1" fill-rule="nonzero"/></g><g clip-path="url(#3a5894d590)"><path fill="#60fdfc" d="M 4.71875 183.183594 L 12.730469 183.183594 C 12.722656 183.359375 12.703125 183.53125 12.703125 183.707031 L 12.703125 193.433594 C 12.703125 200.21875 18.222656 205.738281 25.007812 205.738281 L 61.628906 205.738281 C 65.488281 205.738281 68.9375 203.949219 71.191406 201.160156 L 80.410156 201.160156 C 77.367188 208.539062 70.09375 213.746094 61.628906 213.746094 L 25.003906 213.746094 C 13.800781 213.746094 4.683594 204.632812 4.683594 193.429688 L 4.683594 183.707031 C 4.683594 183.527344 4.710938 183.355469 4.71875 183.183594 Z M 4.71875 183.183594 " fill-opacity="1" fill-rule="nonzero"/></g><g clip-path="url(#cfcfccc770)"><path fill="#60fdfc" d="M 57.023438 216.636719 L 57.023438 229.554688 L 54.652344 231.628906 L 44.488281 225.191406 L 44.488281 220.996094 L 54.652344 214.554688 Z M 57.023438 216.636719 " fill-opacity="1" fill-rule="nonzero"/></g><g clip-path="url(#129ee189af)"><path fill="#60fdfc" d="M 42.136719 220.996094 L 42.136719 225.191406 L 31.972656 231.628906 L 29.601562 229.554688 L 29.601562 216.636719 L 31.972656 214.554688 Z M 42.136719 220.996094 " fill-opacity="1" fill-rule="nonzero"/></g><path fill="#60fdfc" d="M 42.476562 221.042969 L 44.148438 221.042969 L 44.148438 225.144531 L 42.476562 225.144531 Z M 42.476562 221.042969 " fill-opacity="1" fill-rule="nonzero"/><g fill="#ff00ff" fill-opacity="1"><g transform="translate(87.862206, 199.218686)"><g><path d="M 6.453125 -25.84375 L 21.96875 -25.84375 C 22.914062 -25.84375 23.78125 -25.609375 24.5625 -25.140625 C 25.34375 -24.679688 25.960938 -24.054688 26.421875 -23.265625 C 26.890625 -22.484375 27.125 -21.617188 27.125 -20.671875 L 27.125 0 L 21.96875 0 L 21.96875 -10.328125 L 6.453125 -10.328125 L 6.453125 0 L 1.296875 0 L 1.296875 -20.671875 C 1.296875 -21.617188 1.523438 -22.484375 1.984375 -23.265625 C 2.453125 -24.054688 3.078125 -24.679688 3.859375 -25.140625 C 4.640625 -25.609375 5.503906 -25.84375 6.453125 -25.84375 Z M 6.453125 -20.671875 L 6.453125 -15.5 L 21.96875 -15.5 L 21.96875 -20.671875 Z M 6.453125 -20.671875 "/></g></g></g><g fill="#ff00ff" fill-opacity="1"><g transform="translate(117.252387, 199.218686)"><g><path d="M 27.125 0 L 1.296875 0 L 1.296875 -5.171875 L 11.625 -5.171875 L 11.625 -20.671875 L 1.296875 -20.671875 L 1.296875 -25.84375 L 27.125 -25.84375 L 27.125 -20.671875 L 16.796875 -20.671875 L 16.796875 -5.171875 L 27.125 -5.171875 Z M 27.125 0 "/></g></g></g><g fill="#ff00ff" fill-opacity="1"><g transform="translate(146.642569, 199.218686)"><g/></g></g><g fill="#ff00ff" fill-opacity="1"><g transform="translate(161.822178, 199.218686)"><g><path d="M 6.453125 -25.84375 L 21.96875 -25.84375 C 22.914062 -25.84375 23.78125 -25.609375 24.5625 -25.140625 C 25.34375 -24.679688 25.960938 -24.054688 26.421875 -23.265625 C 26.890625 -22.484375 27.125 -21.617188 27.125 -20.671875 L 27.125 0 L 21.96875 0 L 21.96875 -20.671875 L 16.796875 -20.671875 L 16.796875 0 L 11.625 0 L 11.625 -20.671875 L 6.453125 -20.671875 L 6.453125 0 L 1.296875 0 L 1.296875 -20.671875 C 1.296875 -21.617188 1.523438 -22.484375 1.984375 -23.265625 C 2.453125 -24.054688 3.078125 -24.679688 3.859375 -25.140625 C 4.640625 -25.609375 5.503906 -25.84375 6.453125 -25.84375 Z M 6.453125 -25.84375 "/></g></g></g><g fill="#ff00ff" fill-opacity="1"><g transform="translate(191.212363, 199.218686)"><g><path d="M 6.453125 -25.84375 L 21.96875 -25.84375 C 22.914062 -25.84375 23.78125 -25.609375 24.5625 -25.140625 C 25.34375 -24.679688 25.960938 -24.054688 26.421875 -23.265625 C 26.890625 -22.484375 27.125 -21.617188 27.125 -20.671875 L 27.125 0 L 21.96875 0 L 21.96875 -10.328125 L 6.453125 -10.328125 L 6.453125 0 L 1.296875 0 L 1.296875 -20.671875 C 1.296875 -21.617188 1.523438 -22.484375 1.984375 -23.265625 C 2.453125 -24.054688 3.078125 -24.679688 3.859375 -25.140625 C 4.640625 -25.609375 5.503906 -25.84375 6.453125 -25.84375 Z M 6.453125 -20.671875 L 6.453125 -15.5 L 21.96875 -15.5 L 21.96875 -20.671875 Z M 6.453125 -20.671875 "/></g></g></g><g fill="#ff00ff" fill-opacity="1"><g transform="translate(220.602542, 199.218686)"><g><path d="M 6.453125 0 L 1.296875 0 L 1.296875 -23.25 C 1.296875 -23.957031 1.546875 -24.566406 2.046875 -25.078125 C 2.554688 -25.585938 3.164062 -25.84375 3.875 -25.84375 C 4.582031 -25.84375 5.195312 -25.582031 5.71875 -25.0625 L 21.96875 -8.8125 L 21.96875 -25.84375 L 27.125 -25.84375 L 27.125 -2.578125 C 27.125 -1.867188 26.867188 -1.257812 26.359375 -0.75 C 25.859375 -0.25 25.253906 0 24.546875 0 C 23.835938 0 23.222656 -0.257812 22.703125 -0.78125 L 6.453125 -17.015625 Z M 6.453125 0 "/></g></g></g><g fill="#ff00ff" fill-opacity="1"><g transform="translate(249.992721, 199.218686)"><g><path d="M 6.453125 -25.84375 L 21.96875 -25.84375 C 22.914062 -25.84375 23.78125 -25.609375 24.5625 -25.140625 C 25.34375 -24.679688 25.960938 -24.054688 26.421875 -23.265625 C 26.890625 -22.484375 27.125 -21.617188 27.125 -20.671875 L 27.125 0 L 21.96875 0 L 21.96875 -10.328125 L 6.453125 -10.328125 L 6.453125 0 L 1.296875 0 L 1.296875 -20.671875 C 1.296875 -21.617188 1.523438 -22.484375 1.984375 -23.265625 C 2.453125 -24.054688 3.078125 -24.679688 3.859375 -25.140625 C 4.640625 -25.609375 5.503906 -25.84375 6.453125 -25.84375 Z M 6.453125 -20.671875 L 6.453125 -15.5 L 21.96875 -15.5 L 21.96875 -20.671875 Z M 6.453125 -20.671875 "/></g></g></g><g fill="#ff00ff" fill-opacity="1"><g transform="translate(279.382899, 199.218686)"><g><path d="M 27.125 -25.84375 L 27.125 -20.671875 L 6.453125 -20.671875 L 6.453125 -5.171875 L 21.96875 -5.171875 L 21.96875 -10.328125 L 11.625 -10.328125 L 11.625 -15.5 L 27.125 -15.5 L 27.125 -5.171875 C 27.125 -4.242188 26.890625 -3.382812 26.421875 -2.59375 C 25.960938 -1.8125 25.347656 -1.179688 24.578125 -0.703125 C 23.804688 -0.234375 22.9375 0 21.96875 0 L 6.453125 0 C 5.503906 0 4.640625 -0.226562 3.859375 -0.6875 C 3.078125 -1.15625 2.453125 -1.78125 1.984375 -2.5625 C 1.523438 -3.351562 1.296875 -4.222656 1.296875 -5.171875 L 1.296875 -20.671875 C 1.296875 -21.617188 1.523438 -22.484375 1.984375 -23.265625 C 2.453125 -24.054688 3.078125 -24.679688 3.859375 -25.140625 C 4.640625 -25.609375 5.503906 -25.84375 6.453125 -25.84375 Z M 27.125 -25.84375 "/></g></g></g><g fill="#ff00ff" fill-opacity="1"><g transform="translate(308.773078, 199.218686)"><g><path d="M 27.125 -25.84375 L 27.125 -20.671875 L 6.453125 -20.671875 L 6.453125 -15.5 L 27.125 -15.5 L 27.125 -10.328125 L 6.453125 -10.328125 L 6.453125 -5.171875 L 27.125 -5.171875 L 27.125 0 L 6.453125 0 C 5.503906 0 4.640625 -0.226562 3.859375 -0.6875 C 3.078125 -1.15625 2.453125 -1.78125 1.984375 -2.5625 C 1.523438 -3.351562 1.296875 -4.222656 1.296875 -5.171875 L 1.296875 -20.671875 C 1.296875 -21.617188 1.523438 -22.484375 1.984375 -23.265625 C 2.453125 -24.054688 3.078125 -24.679688 3.859375 -25.140625 C 4.640625 -25.609375 5.503906 -25.84375 6.453125 -25.84375 Z M 27.125 -25.84375 "/></g></g></g><g fill="#ff00ff" fill-opacity="1"><g transform="translate(338.163257, 199.218686)"><g><path d="M 27.125 -20.671875 L 27.125 -15.5 C 27.125 -14.550781 26.890625 -13.679688 26.421875 -12.890625 C 25.960938 -12.109375 25.34375 -11.484375 24.5625 -11.015625 C 23.78125 -10.554688 22.914062 -10.328125 21.96875 -10.328125 L 16.796875 -10.328125 L 21.96875 -5.171875 L 27.125 -5.171875 L 27.125 0 L 20.921875 0 C 20.191406 0 19.570312 -0.257812 19.0625 -0.78125 L 9.5 -10.328125 L 6.453125 -10.328125 L 6.453125 0 L 1.296875 0 L 1.296875 -25.84375 L 21.96875 -25.84375 C 22.914062 -25.84375 23.78125 -25.609375 24.5625 -25.140625 C 25.34375 -24.679688 25.960938 -24.054688 26.421875 -23.265625 C 26.890625 -22.484375 27.125 -21.617188 27.125 -20.671875 Z M 21.96875 -20.671875 L 6.453125 -20.671875 L 6.453125 -15.5 L 21.96875 -15.5 Z M 21.96875 -20.671875 "/></g></g></g><g fill="#00ffff" fill-opacity="1"><g transform="translate(86.650897, 199.218686)"><g><path d="M 6.453125 -25.84375 L 21.96875 -25.84375 C 22.914062 -25.84375 23.78125 -25.609375 24.5625 -25.140625 C 25.34375 -24.679688 25.960938 -24.054688 26.421875 -23.265625 C 26.890625 -22.484375 27.125 -21.617188 27.125 -20.671875 L 27.125 0 L 21.96875 0 L 21.96875 -10.328125 L 6.453125 -10.328125 L 6.453125 0 L 1.296875 0 L 1.296875 -20.671875 C 1.296875 -21.617188 1.523438 -22.484375 1.984375 -23.265625 C 2.453125 -24.054688 3.078125 -24.679688 3.859375 -25.140625 C 4.640625 -25.609375 5.503906 -25.84375 6.453125 -25.84375 Z M 6.453125 -20.671875 L 6.453125 -15.5 L 21.96875 -15.5 L 21.96875 -20.671875 Z M 6.453125 -20.671875 "/></g></g></g><g fill="#00ffff" fill-opacity="1"><g transform="translate(116.041079, 199.218686)"><g><path d="M 27.125 0 L 1.296875 0 L 1.296875 -5.171875 L 11.625 -5.171875 L 11.625 -20.671875 L 1.296875 -20.671875 L 1.296875 -25.84375 L 27.125 -25.84375 L 27.125 -20.671875 L 16.796875 -20.671875 L 16.796875 -5.171875 L 27.125 -5.171875 Z M 27.125 0 "/></g></g></g><g fill="#00ffff" fill-opacity="1"><g transform="translate(145.43126, 199.218686)"><g/></g></g><g fill="#00ffff" fill-opacity="1"><g transform="translate(160.61087, 199.218686)"><g><path d="M 6.453125 -25.84375 L 21.96875 -25.84375 C 22.914062 -25.84375 23.78125 -25.609375 24.5625 -25.140625 C 25.34375 -24.679688 25.960938 -24.054688 26.421875 -23.265625 C 26.890625 -22.484375 27.125 -21.617188 27.125 -20.671875 L 27.125 0 L 21.96875 0 L 21.96875 -20.671875 L 16.796875 -20.671875 L 16.796875 0 L 11.625 0 L 11.625 -20.671875 L 6.453125 -20.671875 L 6.453125 0 L 1.296875 0 L 1.296875 -20.671875 C 1.296875 -21.617188 1.523438 -22.484375 1.984375 -23.265625 C 2.453125 -24.054688 3.078125 -24.679688 3.859375 -25.140625 C 4.640625 -25.609375 5.503906 -25.84375 6.453125 -25.84375 Z M 6.453125 -25.84375 "/></g></g></g><g fill="#00ffff" fill-opacity="1"><g transform="translate(190.001055, 199.218686)"><g><path d="M 6.453125 -25.84375 L 21.96875 -25.84375 C 22.914062 -25.84375 23.78125 -25.609375 24.5625 -25.140625 C 25.34375 -24.679688 25.960938 -24.054688 26.421875 -23.265625 C 26.890625 -22.484375 27.125 -21.617188 27.125 -20.671875 L 27.125 0 L 21.96875 0 L 21.96875 -10.328125 L 6.453125 -10.328125 L 6.453125 0 L 1.296875 0 L 1.296875 -20.671875 C 1.296875 -21.617188 1.523438 -22.484375 1.984375 -23.265625 C 2.453125 -24.054688 3.078125 -24.679688 3.859375 -25.140625 C 4.640625 -25.609375 5.503906 -25.84375 6.453125 -25.84375 Z M 6.453125 -20.671875 L 6.453125 -15.5 L 21.96875 -15.5 L 21.96875 -20.671875 Z M 6.453125 -20.671875 "/></g></g></g><g fill="#00ffff" fill-opacity="1"><g transform="translate(219.391233, 199.218686)"><g><path d="M 6.453125 0 L 1.296875 0 L 1.296875 -23.25 C 1.296875 -23.957031 1.546875 -24.566406 2.046875 -25.078125 C 2.554688 -25.585938 3.164062 -25.84375 3.875 -25.84375 C 4.582031 -25.84375 5.195312 -25.582031 5.71875 -25.0625 L 21.96875 -8.8125 L 21.96875 -25.84375 L 27.125 -25.84375 L 27.125 -2.578125 C 27.125 -1.867188 26.867188 -1.257812 26.359375 -0.75 C 25.859375 -0.25 25.253906 0 24.546875 0 C 23.835938 0 23.222656 -0.257812 22.703125 -0.78125 L 6.453125 -17.015625 Z M 6.453125 0 "/></g></g></g><g fill="#00ffff" fill-opacity="1"><g transform="translate(248.781412, 199.218686)"><g><path d="M 6.453125 -25.84375 L 21.96875 -25.84375 C 22.914062 -25.84375 23.78125 -25.609375 24.5625 -25.140625 C 25.34375 -24.679688 25.960938 -24.054688 26.421875 -23.265625 C 26.890625 -22.484375 27.125 -21.617188 27.125 -20.671875 L 27.125 0 L 21.96875 0 L 21.96875 -10.328125 L 6.453125 -10.328125 L 6.453125 0 L 1.296875 0 L 1.296875 -20.671875 C 1.296875 -21.617188 1.523438 -22.484375 1.984375 -23.265625 C 2.453125 -24.054688 3.078125 -24.679688 3.859375 -25.140625 C 4.640625 -25.609375 5.503906 -25.84375 6.453125 -25.84375 Z M 6.453125 -20.671875 L 6.453125 -15.5 L 21.96875 -15.5 L 21.96875 -20.671875 Z M 6.453125 -20.671875 "/></g></g></g><g fill="#00ffff" fill-opacity="1"><g transform="translate(278.171591, 199.218686)"><g><path d="M 27.125 -25.84375 L 27.125 -20.671875 L 6.453125 -20.671875 L 6.453125 -5.171875 L 21.96875 -5.171875 L 21.96875 -10.328125 L 11.625 -10.328125 L 11.625 -15.5 L 27.125 -15.5 L 27.125 -5.171875 C 27.125 -4.242188 26.890625 -3.382812 26.421875 -2.59375 C 25.960938 -1.8125 25.347656 -1.179688 24.578125 -0.703125 C 23.804688 -0.234375 22.9375 0 21.96875 0 L 6.453125 0 C 5.503906 0 4.640625 -0.226562 3.859375 -0.6875 C 3.078125 -1.15625 2.453125 -1.78125 1.984375 -2.5625 C 1.523438 -3.351562 1.296875 -4.222656 1.296875 -5.171875 L 1.296875 -20.671875 C 1.296875 -21.617188 1.523438 -22.484375 1.984375 -23.265625 C 2.453125 -24.054688 3.078125 -24.679688 3.859375 -25.140625 C 4.640625 -25.609375 5.503906 -25.84375 6.453125 -25.84375 Z M 27.125 -25.84375 "/></g></g></g><g fill="#00ffff" fill-opacity="1"><g transform="translate(307.561769, 199.218686)"><g><path d="M 27.125 -25.84375 L 27.125 -20.671875 L 6.453125 -20.671875 L 6.453125 -15.5 L 27.125 -15.5 L 27.125 -10.328125 L 6.453125 -10.328125 L 6.453125 -5.171875 L 27.125 -5.171875 L 27.125 0 L 6.453125 0 C 5.503906 0 4.640625 -0.226562 3.859375 -0.6875 C 3.078125 -1.15625 2.453125 -1.78125 1.984375 -2.5625 C 1.523438 -3.351562 1.296875 -4.222656 1.296875 -5.171875 L 1.296875 -20.671875 C 1.296875 -21.617188 1.523438 -22.484375 1.984375 -23.265625 C 2.453125 -24.054688 3.078125 -24.679688 3.859375 -25.140625 C 4.640625 -25.609375 5.503906 -25.84375 6.453125 -25.84375 Z M 27.125 -25.84375 "/></g></g></g><g fill="#00ffff" fill-opacity="1"><g transform="translate(336.951948, 199.218686)"><g><path d="M 27.125 -20.671875 L 27.125 -15.5 C 27.125 -14.550781 26.890625 -13.679688 26.421875 -12.890625 C 25.960938 -12.109375 25.34375 -11.484375 24.5625 -11.015625 C 23.78125 -10.554688 22.914062 -10.328125 21.96875 -10.328125 L 16.796875 -10.328125 L 21.96875 -5.171875 L 27.125 -5.171875 L 27.125 0 L 20.921875 0 C 20.191406 0 19.570312 -0.257812 19.0625 -0.78125 L 9.5 -10.328125 L 6.453125 -10.328125 L 6.453125 0 L 1.296875 0 L 1.296875 -25.84375 L 21.96875 -25.84375 C 22.914062 -25.84375 23.78125 -25.609375 24.5625 -25.140625 C 25.34375 -24.679688 25.960938 -24.054688 26.421875 -23.265625 C 26.890625 -22.484375 27.125 -21.617188 27.125 -20.671875 Z M 21.96875 -20.671875 L 6.453125 -20.671875 L 6.453125 -15.5 L 21.96875 -15.5 Z M 21.96875 -20.671875 "/></g></g></g><g fill="#ffffff" fill-opacity="1"><g transform="translate(87.256552, 199.218686)"><g><path d="M 6.453125 -25.84375 L 21.96875 -25.84375 C 22.914062 -25.84375 23.78125 -25.609375 24.5625 -25.140625 C 25.34375 -24.679688 25.960938 -24.054688 26.421875 -23.265625 C 26.890625 -22.484375 27.125 -21.617188 27.125 -20.671875 L 27.125 0 L 21.96875 0 L 21.96875 -10.328125 L 6.453125 -10.328125 L 6.453125 0 L 1.296875 0 L 1.296875 -20.671875 C 1.296875 -21.617188 1.523438 -22.484375 1.984375 -23.265625 C 2.453125 -24.054688 3.078125 -24.679688 3.859375 -25.140625 C 4.640625 -25.609375 5.503906 -25.84375 6.453125 -25.84375 Z M 6.453125 -20.671875 L 6.453125 -15.5 L 21.96875 -15.5 L 21.96875 -20.671875 Z M 6.453125 -20.671875 "/></g></g></g><g fill="#ffffff" fill-opacity="1"><g transform="translate(116.646733, 199.218686)"><g><path d="M 27.125 0 L 1.296875 0 L 1.296875 -5.171875 L 11.625 -5.171875 L 11.625 -20.671875 L 1.296875 -20.671875 L 1.296875 -25.84375 L 27.125 -25.84375 L 27.125 -20.671875 L 16.796875 -20.671875 L 16.796875 -5.171875 L 27.125 -5.171875 Z M 27.125 0 "/></g></g></g><g fill="#ffffff" fill-opacity="1"><g transform="translate(146.036914, 199.218686)"><g/></g></g><g fill="#ffffff" fill-opacity="1"><g transform="translate(161.216524, 199.218686)"><g><path d="M 6.453125 -25.84375 L 21.96875 -25.84375 C 22.914062 -25.84375 23.78125 -25.609375 24.5625 -25.140625 C 25.34375 -24.679688 25.960938 -24.054688 26.421875 -23.265625 C 26.890625 -22.484375 27.125 -21.617188 27.125 -20.671875 L 27.125 0 L 21.96875 0 L 21.96875 -20.671875 L 16.796875 -20.671875 L 16.796875 0 L 11.625 0 L 11.625 -20.671875 L 6.453125 -20.671875 L 6.453125 0 L 1.296875 0 L 1.296875 -20.671875 C 1.296875 -21.617188 1.523438 -22.484375 1.984375 -23.265625 C 2.453125 -24.054688 3.078125 -24.679688 3.859375 -25.140625 C 4.640625 -25.609375 5.503906 -25.84375 6.453125 -25.84375 Z M 6.453125 -25.84375 "/></g></g></g><g fill="#ffffff" fill-opacity="1"><g transform="translate(190.606709, 199.218686)"><g><path d="M 6.453125 -25.84375 L 21.96875 -25.84375 C 22.914062 -25.84375 23.78125 -25.609375 24.5625 -25.140625 C 25.34375 -24.679688 25.960938 -24.054688 26.421875 -23.265625 C 26.890625 -22.484375 27.125 -21.617188 27.125 -20.671875 L 27.125 0 L 21.96875 0 L 21.96875 -10.328125 L 6.453125 -10.328125 L 6.453125 0 L 1.296875 0 L 1.296875 -20.671875 C 1.296875 -21.617188 1.523438 -22.484375 1.984375 -23.265625 C 2.453125 -24.054688 3.078125 -24.679688 3.859375 -25.140625 C 4.640625 -25.609375 5.503906 -25.84375 6.453125 -25.84375 Z M 6.453125 -20.671875 L 6.453125 -15.5 L 21.96875 -15.5 L 21.96875 -20.671875 Z M 6.453125 -20.671875 "/></g></g></g><g fill="#ffffff" fill-opacity="1"><g transform="translate(219.996888, 199.218686)"><g><path d="M 6.453125 0 L 1.296875 0 L 1.296875 -23.25 C 1.296875 -23.957031 1.546875 -24.566406 2.046875 -25.078125 C 2.554688 -25.585938 3.164062 -25.84375 3.875 -25.84375 C 4.582031 -25.84375 5.195312 -25.582031 5.71875 -25.0625 L 21.96875 -8.8125 L 21.96875 -25.84375 L 27.125 -25.84375 L 27.125 -2.578125 C 27.125 -1.867188 26.867188 -1.257812 26.359375 -0.75 C 25.859375 -0.25 25.253906 0 24.546875 0 C 23.835938 0 23.222656 -0.257812 22.703125 -0.78125 L 6.453125 -17.015625 Z M 6.453125 0 "/></g></g></g><g fill="#ffffff" fill-opacity="1"><g transform="translate(249.387066, 199.218686)"><g><path d="M 6.453125 -25.84375 L 21.96875 -25.84375 C 22.914062 -25.84375 23.78125 -25.609375 24.5625 -25.140625 C 25.34375 -24.679688 25.960938 -24.054688 26.421875 -23.265625 C 26.890625 -22.484375 27.125 -21.617188 27.125 -20.671875 L 27.125 0 L 21.96875 0 L 21.96875 -10.328125 L 6.453125 -10.328125 L 6.453125 0 L 1.296875 0 L 1.296875 -20.671875 C 1.296875 -21.617188 1.523438 -22.484375 1.984375 -23.265625 C 2.453125 -24.054688 3.078125 -24.679688 3.859375 -25.140625 C 4.640625 -25.609375 5.503906 -25.84375 6.453125 -25.84375 Z M 6.453125 -20.671875 L 6.453125 -15.5 L 21.96875 -15.5 L 21.96875 -20.671875 Z M 6.453125 -20.671875 "/></g></g></g><g fill="#ffffff" fill-opacity="1"><g transform="translate(278.777245, 199.218686)"><g><path d="M 27.125 -25.84375 L 27.125 -20.671875 L 6.453125 -20.671875 L 6.453125 -5.171875 L 21.96875 -5.171875 L 21.96875 -10.328125 L 11.625 -10.328125 L 11.625 -15.5 L 27.125 -15.5 L 27.125 -5.171875 C 27.125 -4.242188 26.890625 -3.382812 26.421875 -2.59375 C 25.960938 -1.8125 25.347656 -1.179688 24.578125 -0.703125 C 23.804688 -0.234375 22.9375 0 21.96875 0 L 6.453125 0 C 5.503906 0 4.640625 -0.226562 3.859375 -0.6875 C 3.078125 -1.15625 2.453125 -1.78125 1.984375 -2.5625 C 1.523438 -3.351562 1.296875 -4.222656 1.296875 -5.171875 L 1.296875 -20.671875 C 1.296875 -21.617188 1.523438 -22.484375 1.984375 -23.265625 C 2.453125 -24.054688 3.078125 -24.679688 3.859375 -25.140625 C 4.640625 -25.609375 5.503906 -25.84375 6.453125 -25.84375 Z M 27.125 -25.84375 "/></g></g></g><g fill="#ffffff" fill-opacity="1"><g transform="translate(308.167424, 199.218686)"><g><path d="M 27.125 -25.84375 L 27.125 -20.671875 L 6.453125 -20.671875 L 6.453125 -15.5 L 27.125 -15.5 L 27.125 -10.328125 L 6.453125 -10.328125 L 6.453125 -5.171875 L 27.125 -5.171875 L 27.125 0 L 6.453125 0 C 5.503906 0 4.640625 -0.226562 3.859375 -0.6875 C 3.078125 -1.15625 2.453125 -1.78125 1.984375 -2.5625 C 1.523438 -3.351562 1.296875 -4.222656 1.296875 -5.171875 L 1.296875 -20.671875 C 1.296875 -21.617188 1.523438 -22.484375 1.984375 -23.265625 C 2.453125 -24.054688 3.078125 -24.679688 3.859375 -25.140625 C 4.640625 -25.609375 5.503906 -25.84375 6.453125 -25.84375 Z M 27.125 -25.84375 "/></g></g></g><g fill="#ffffff" fill-opacity="1"><g transform="translate(337.557602, 199.218686)"><g><path d="M 27.125 -20.671875 L 27.125 -15.5 C 27.125 -14.550781 26.890625 -13.679688 26.421875 -12.890625 C 25.960938 -12.109375 25.34375 -11.484375 24.5625 -11.015625 C 23.78125 -10.554688 22.914062 -10.328125 21.96875 -10.328125 L 16.796875 -10.328125 L 21.96875 -5.171875 L 27.125 -5.171875 L 27.125 0 L 20.921875 0 C 20.191406 0 19.570312 -0.257812 19.0625 -0.78125 L 9.5 -10.328125 L 6.453125 -10.328125 L 6.453125 0 L 1.296875 0 L 1.296875 -25.84375 L 21.96875 -25.84375 C 22.914062 -25.84375 23.78125 -25.609375 24.5625 -25.140625 C 25.34375 -24.679688 25.960938 -24.054688 26.421875 -23.265625 C 26.890625 -22.484375 27.125 -21.617188 27.125 -20.671875 Z M 21.96875 -20.671875 L 6.453125 -20.671875 L 6.453125 -15.5 L 21.96875 -15.5 Z M 21.96875 -20.671875 "/></g></g></g></svg>