<svg xmlns="http://www.w3.org/2000/svg" xmlns:xlink="http://www.w3.org/1999/xlink" width="500" zoomAndPan="magnify" viewBox="0 0 375 374.999991" height="500" preserveAspectRatio="xMidYMid meet" version="1.0"><defs><clipPath id="9ee6dba020"><path d="M 36 8.367188 L 344.234375 8.367188 L 344.234375 214 L 36 214 Z M 36 8.367188 " clip-rule="nonzero"/></clipPath><clipPath id="311e7b26ea"><path d="M 30.734375 169 L 339 169 L 339 295 L 30.734375 295 Z M 30.734375 169 " clip-rule="nonzero"/></clipPath><clipPath id="ed87c13975"><path d="M 192 297 L 244 297 L 244 366.867188 L 192 366.867188 Z M 192 297 " clip-rule="nonzero"/></clipPath><clipPath id="c682980306"><path d="M 131 297 L 183 297 L 183 366.867188 L 131 366.867188 Z M 131 297 " clip-rule="nonzero"/></clipPath></defs><rect x="-37.5" width="450" fill="#ffffff" y="-37.499999" height="449.999989" fill-opacity="1"/><rect x="-37.5" width="450" fill="#031744" y="-37.499999" height="449.999989" fill-opacity="1"/><path fill="#60fdfc" d="M 263.179688 191.863281 C 263.179688 203.179688 254 212.378906 242.660156 212.378906 C 231.320312 212.378906 222.140625 203.203125 222.140625 191.863281 C 222.140625 180.519531 231.320312 171.34375 242.660156 171.34375 C 254 171.34375 263.179688 180.519531 263.179688 191.863281 Z M 263.179688 191.863281 " fill-opacity="1" fill-rule="nonzero"/><path fill="#60fdfc" d="M 132.351562 171.34375 C 143.671875 171.34375 152.871094 180.519531 152.871094 191.863281 C 152.871094 203.179688 143.691406 212.378906 132.351562 212.378906 C 121.011719 212.378906 111.832031 203.179688 111.832031 191.863281 C 111.832031 180.519531 121.011719 171.34375 132.351562 171.34375 Z M 132.351562 171.34375 " fill-opacity="1" fill-rule="nonzero"/><g clip-path="url(#9ee6dba020)"><path fill="#60fdfc" d="M 311.65625 213.714844 L 344.152344 213.714844 C 344.171875 212.996094 344.257812 212.296875 344.257812 211.597656 L 344.257812 172.105469 C 344.257812 126.640625 307.269531 89.648438 261.800781 89.648438 L 194.839844 89.648438 L 194.839844 54.316406 C 204.25 51.199219 211.097656 42.445312 211.097656 31.996094 C 211.097656 18.957031 200.519531 8.382812 187.484375 8.382812 C 174.449219 8.382812 163.871094 18.957031 163.871094 31.996094 C 163.871094 42.445312 170.71875 51.21875 180.128906 54.316406 L 180.128906 89.671875 L 113.1875 89.671875 C 78.828125 89.671875 49.34375 110.824219 36.964844 140.757812 L 74.378906 140.757812 C 83.535156 129.4375 97.523438 122.167969 113.1875 122.167969 L 261.820312 122.167969 C 289.355469 122.167969 311.761719 144.570312 311.761719 172.105469 L 311.761719 211.597656 C 311.761719 212.316406 311.675781 213.015625 311.65625 213.714844 Z M 185.46875 21.820312 C 185.46875 25.507812 182.480469 28.496094 178.792969 28.496094 C 175.105469 28.496094 172.117188 25.507812 172.117188 21.820312 C 172.117188 18.132812 175.105469 15.144531 178.792969 15.144531 C 182.480469 15.144531 185.46875 18.152344 185.46875 21.820312 Z M 185.46875 21.820312 " fill-opacity="1" fill-rule="nonzero"/></g><g clip-path="url(#311e7b26ea)"><path fill="#60fdfc" d="M 30.859375 169.988281 L 63.375 169.988281 C 63.355469 170.707031 63.269531 171.40625 63.269531 172.105469 L 63.269531 211.597656 C 63.269531 239.132812 85.675781 261.535156 113.210938 261.535156 L 261.84375 261.535156 C 277.507812 261.535156 291.496094 254.265625 300.65625 242.945312 L 338.066406 242.945312 C 325.710938 272.898438 296.203125 294.03125 261.84375 294.03125 L 113.1875 294.03125 C 67.722656 294.03125 30.734375 257.042969 30.734375 211.574219 L 30.734375 172.105469 C 30.734375 171.386719 30.839844 170.6875 30.859375 169.988281 Z M 30.859375 169.988281 " fill-opacity="1" fill-rule="nonzero"/></g><g clip-path="url(#ed87c13975)"><path fill="#60fdfc" d="M 243.148438 305.753906 L 243.148438 358.195312 L 233.523438 366.609375 L 192.273438 340.472656 L 192.273438 323.453125 L 233.523438 297.316406 Z M 243.148438 305.753906 " fill-opacity="1" fill-rule="nonzero"/></g><g clip-path="url(#c682980306)"><path fill="#60fdfc" d="M 182.734375 323.453125 L 182.734375 340.472656 L 141.488281 366.609375 L 131.863281 358.195312 L 131.863281 305.753906 L 141.488281 297.316406 Z M 182.734375 323.453125 " fill-opacity="1" fill-rule="nonzero"/></g><path fill="#60fdfc" d="M 184.113281 323.644531 L 190.898438 323.644531 L 190.898438 340.28125 L 184.113281 340.28125 Z M 184.113281 323.644531 " fill-opacity="1" fill-rule="nonzero"/></svg>